<svg width="64" height="64" viewBox="0 0 64 64" fill="none" xmlns="http://www.w3.org/2000/svg">
  <defs>
    <linearGradient id="gold-gradient" x1="0" y1="0" x2="64" y2="64" gradientUnits="userSpaceOnUse">
      <stop stop-color="#C5A267" />
      <stop offset="1" stop-color="#B08D57" />
    </linearGradient>
  </defs>
  <g>
    <!-- Custom S shape with film strip effect -->
    <path d="M52 16Q48 8 32 8Q16 8 12 20Q10 28 32 32Q54 36 52 48Q48 56 32 56Q16 56 12 44" stroke="url(#gold-gradient)" stroke-width="8" fill="none" stroke-linecap="round" stroke-linejoin="round"/>
    <!-- Film strip holes -->
    <rect x="16" y="12" width="4" height="4" rx="1" fill="#fff" opacity="0.7"/>
    <rect x="24" y="10" width="4" height="4" rx="1" fill="#fff" opacity="0.7"/>
    <rect x="36" y="10" width="4" height="4" rx="1" fill="#fff" opacity="0.7"/>
    <rect x="44" y="12" width="4" height="4" rx="1" fill="#fff" opacity="0.7"/>
    <rect x="16" y="48" width="4" height="4" rx="1" fill="#fff" opacity="0.7"/>
    <rect x="24" y="50" width="4" height="4" rx="1" fill="#fff" opacity="0.7"/>
    <rect x="36" y="50" width="4" height="4" rx="1" fill="#fff" opacity="0.7"/>
    <rect x="44" y="48" width="4" height="4" rx="1" fill="#fff" opacity="0.7"/>
  </g>
</svg>